<svg width="48" height="48" fill="none" xmlns="http://www.w3.org/2000/svg"><rect width="48" height="48" rx="4" fill="#EDFFDD"/><path d="M29.563 13.005 26.786 13c-3.12 0-5.137 2.125-5.137 5.414v2.497h-2.792c-.242 0-.437.2-.437.448v3.617c0 .248.196.449.437.449h2.792v9.126c0 .248.196.449.437.449h3.643a.443.443 0 0 0 .437-.449v-9.126h3.265c.241 0 .436-.2.436-.449l.002-3.617a.455.455 0 0 0-.128-.317.43.43 0 0 0-.309-.131h-3.266v-2.117c0-1.017.236-1.533 1.526-1.533h1.87a.443.443 0 0 0 .437-.45v-3.358a.443.443 0 0 0-.436-.448Z" fill="#066F14"/></svg>