<svg width="48" height="48" fill="none" xmlns="http://www.w3.org/2000/svg"><rect width="48" height="48" rx="4" fill="#EDFFDD"/><path fill-rule="evenodd" clip-rule="evenodd" d="M14 24c0-4.191 0-6.287 1.05-7.733a5.5 5.5 0 0 1 1.217-1.217C17.713 14 19.81 14 24 14s6.287 0 7.733 1.05a5.5 5.5 0 0 1 1.217 1.217C34 17.713 34 19.81 34 24s0 6.287-1.05 7.733a5.5 5.5 0 0 1-1.217 1.217C30.287 34 28.19 34 24 34s-6.287 0-7.733-1.05a5.5 5.5 0 0 1-1.217-1.217C14 30.287 14 28.19 14 24Zm10-5.294a5.294 5.294 0 1 0 0 10.588 5.294 5.294 0 0 0 0-10.588Zm0 8.603A3.313 3.313 0 0 1 20.691 24 3.313 3.313 0 0 1 24 20.691 3.313 3.313 0 0 1 27.309 24 3.313 3.313 0 0 1 24 27.309Zm6.397-9a.705.705 0 1 1-1.411 0 .705.705 0 0 1 1.41 0Z" fill="#066F14"/></svg>