<svg width="68" height="68" fill="none" xmlns="http://www.w3.org/2000/svg"><path d="M67.268 20.267c-.156-3.542-.729-5.978-1.55-8.088a16.27 16.27 0 0 0-3.855-5.912 16.408 16.408 0 0 0-5.9-3.842c-2.122-.82-4.544-1.393-8.087-1.55-3.568-.17-4.701-.208-13.752-.208-9.052 0-10.185.039-13.74.195-3.542.156-5.978.73-8.087 1.55a16.266 16.266 0 0 0-5.913 3.855 16.414 16.414 0 0 0-3.842 5.9c-.82 2.122-1.393 4.544-1.55 8.087-.169 3.568-.208 4.701-.208 13.753 0 9.05.039 10.184.195 13.74.156 3.541.73 5.977 1.55 8.087a16.44 16.44 0 0 0 3.855 5.912 16.408 16.408 0 0 0 5.9 3.842c2.122.82 4.544 1.394 8.087 1.55 3.555.156 4.689.195 13.74.195s10.184-.038 13.74-.195c3.542-.156 5.977-.73 8.087-1.55a17.052 17.052 0 0 0 9.754-9.754c.82-2.123 1.394-4.546 1.55-8.088.156-3.555.195-4.688.195-13.74 0-9.05-.013-10.184-.169-13.74Zm-6.003 27.219c-.144 3.256-.69 5.014-1.147 6.186a11.06 11.06 0 0 1-6.33 6.33c-1.171.455-2.942 1.002-6.185 1.145-3.517.157-4.571.196-13.466.196s-9.963-.04-13.467-.196c-3.256-.143-5.014-.69-6.186-1.145a10.259 10.259 0 0 1-3.828-2.488 10.365 10.365 0 0 1-2.488-3.829c-.456-1.172-1.003-2.943-1.146-6.186-.156-3.516-.195-4.571-.195-13.467 0-8.894.039-9.962.195-13.465.143-3.256.69-5.014 1.146-6.187a10.133 10.133 0 0 1 2.5-3.829 10.35 10.35 0 0 1 3.83-2.487c1.172-.456 2.943-1.003 6.186-1.146 3.516-.156 4.571-.195 13.466-.195 8.908 0 9.962.039 13.466.195 3.256.143 5.014.69 6.186 1.146a10.25 10.25 0 0 1 3.829 2.487 10.362 10.362 0 0 1 2.487 3.83c.456 1.172 1.003 2.942 1.147 6.186.156 3.516.195 4.57.195 13.465 0 8.896-.04 9.938-.195 13.454Z" fill="#fff"/><path d="M34.124 16.88c-9.455 0-17.126 7.671-17.126 17.127 0 9.455 7.67 17.125 17.126 17.125 9.455 0 17.125-7.67 17.125-17.125 0-9.456-7.67-17.126-17.125-17.126Zm0 28.236c-6.134 0-11.11-4.975-11.11-11.11 0-6.134 4.976-11.108 11.11-11.108 6.134 0 11.109 4.974 11.109 11.109 0 6.134-4.975 11.109-11.11 11.109ZM55.925 16.204a3.999 3.999 0 1 1-7.997-.001 3.999 3.999 0 0 1 7.997 0Z" fill="#fff"/></svg>