<svg width="57" height="19" fill="none" xmlns="http://www.w3.org/2000/svg"><path d="M2.36 18.144c-.464 0-.84-.136-1.128-.408-.272-.288-.408-.672-.408-1.152V2.544c0-.464.128-.824.384-1.08.272-.256.64-.384 1.104-.384h5.904c1.808 0 3.216.456 4.224 1.368 1.008.896 1.512 2.16 1.512 3.792 0 1.632-.504 2.904-1.512 3.816-1.008.912-2.416 1.368-4.224 1.368H3.92v5.16c0 .48-.144.864-.432 1.152-.272.272-.648.408-1.128.408Zm5.472-9.096c2.128 0 3.192-.928 3.192-2.784 0-1.856-1.064-2.784-3.192-2.784H3.92v5.568h3.912Zm10.06 9.096c-.432 0-.792-.12-1.08-.36-.272-.256-.408-.616-.408-1.08V2.376c0-.464.136-.816.408-1.056.288-.24.648-.36 1.08-.36.432 0 .792.12 1.08.36.288.24.432.592.432 1.056v14.328c0 .464-.144.824-.432 1.08-.288.24-.648.36-1.08.36Zm9.694-12.168c1.632 0 2.84.408 3.623 1.224.8.8 1.2 2.024 1.2 3.672v5.856c0 .432-.127.776-.383 1.032-.257.24-.609.36-1.057.36-.416 0-.76-.128-1.032-.384-.256-.256-.384-.592-.384-1.008V16.2a3.114 3.114 0 0 1-1.296 1.464c-.576.352-1.248.528-2.016.528-.784 0-1.495-.16-2.136-.48a3.8 3.8 0 0 1-1.512-1.32 3.335 3.335 0 0 1-.552-1.872c0-.864.216-1.544.648-2.04.448-.496 1.169-.856 2.16-1.08.992-.224 2.36-.336 4.104-.336h.6v-.552c0-.784-.168-1.352-.504-1.704-.335-.368-.88-.552-1.631-.552-.465 0-.936.072-1.416.216-.48.128-1.049.32-1.704.576-.416.208-.72.312-.912.312a.94.94 0 0 1-.72-.312c-.177-.208-.265-.48-.265-.816 0-.272.064-.504.192-.696.145-.208.377-.4.697-.576.56-.304 1.224-.544 1.992-.72a10.5 10.5 0 0 1 2.303-.264Zm-.744 10.056c.8 0 1.448-.264 1.944-.792.511-.544.767-1.24.767-2.088v-.504h-.431c-1.073 0-1.904.048-2.497.144-.591.096-1.015.264-1.271.504s-.384.568-.384.984c0 .512.175.936.527 1.272.369.32.817.48 1.345.48ZM42.273 5.976c1.408 0 2.456.4 3.144 1.2.688.8 1.032 2.008 1.032 3.624v5.904c0 .448-.136.8-.408 1.056-.256.256-.616.384-1.08.384-.464 0-.832-.128-1.104-.384-.272-.256-.408-.608-.408-1.056v-5.736c0-.912-.176-1.576-.528-1.992-.336-.416-.872-.624-1.608-.624-.864 0-1.56.272-2.088.816-.512.544-.768 1.272-.768 2.184v5.352c0 .448-.136.8-.408 1.056-.272.256-.64.384-1.104.384-.464 0-.832-.128-1.104-.384-.256-.256-.384-.608-.384-1.056V7.416c0-.416.136-.752.408-1.008.272-.256.64-.384 1.104-.384.416 0 .752.128 1.008.384.272.24.408.56.408.96v.648c.4-.656.936-1.16 1.608-1.512.672-.352 1.432-.528 2.28-.528Zm13.32 9.936c.8.048 1.2.408 1.2 1.08 0 .384-.16.68-.48.888-.304.192-.745.272-1.32.24l-.648-.048c-2.688-.192-4.032-1.632-4.032-4.32V8.52h-1.2c-.432 0-.768-.096-1.008-.288-.224-.192-.337-.472-.337-.84s.113-.648.337-.84c.24-.192.575-.288 1.008-.288h1.2V4.056c0-.432.136-.776.407-1.032.273-.256.64-.384 1.105-.384.447 0 .807.128 1.08.384.272.256.407.6.407 1.032v2.208h2.04c.432 0 .76.096.984.288.24.192.36.472.36.84s-.12.648-.36.84c-.224.192-.552.288-.984.288h-2.04v5.448c0 1.184.544 1.816 1.633 1.896l.648.048Z" fill="#1A1A1A"/></svg>