<svg width="48" height="48" fill="none" xmlns="http://www.w3.org/2000/svg"><rect width="48" height="48" rx="4" fill="#EDFFDD"/><path d="M34.5 17.773a8.903 8.903 0 0 1-2.474.65 4.18 4.18 0 0 0 1.894-2.281 8.921 8.921 0 0 1-2.737 1.001 4.387 4.387 0 0 0-3.145-1.303c-2.379 0-4.308 1.847-4.308 4.124 0 .323.038.638.112.94-3.58-.172-6.754-1.815-8.879-4.31a3.962 3.962 0 0 0-.582 2.073c0 1.431.76 2.694 1.915 3.433a4.455 4.455 0 0 1-1.95-.518v.052c0 1.998 1.485 3.665 3.454 4.044-.36.093-.741.145-1.135.145-.278 0-.547-.026-.81-.077.548 1.64 2.138 2.832 4.023 2.865a8.89 8.89 0 0 1-5.35 1.763c-.348 0-.69-.02-1.028-.056a12.572 12.572 0 0 0 6.603 1.855c7.925 0 12.257-6.285 12.257-11.735l-.015-.534a8.413 8.413 0 0 0 2.155-2.131Z" fill="#066F14"/></svg>